<?xml version="1.0" encoding="utf-8"?>
<!-- Generator: Adobe Illustrator 16.0.0, SVG Export Plug-In . SVG Version: 6.00 Build 0)  -->
<!DOCTYPE svg PUBLIC "-//W3C//DTD SVG 1.1//EN" "http://www.w3.org/Graphics/SVG/1.1/DTD/svg11.dtd">
<svg version="1.1" id="Layer_1" xmlns="http://www.w3.org/2000/svg" xmlns:xlink="http://www.w3.org/1999/xlink" x="0px" y="0px"
	 width="542px" height="494px" viewBox="25.5 142.5 542 494" enable-background="new 25.5 142.5 542 494" xml:space="preserve">
<g>
	<g>
		<path fill="#FFFFFF" d="M358.912,294.319c-7.649,22.312-16.256,30.6-30.918,30.281c-14.344,0-25.182-9.881-31.557-29.006
			c-6.056,18.169-16.256,31.237-36.656,28.369c-15.619-1.913-22.95-13.069-25.5-28.688c-1.594,3.506-2.55,6.375-4.144,9.244
			c-6.375,11.156-15.3,18.488-28.369,19.763c-14.981,1.594-27.094-9.244-29.006-25.181c-0.319-1.275-0.319-2.869-0.319-5.1
			c-0.957,2.231-1.594,3.825-2.55,5.1c-6.056,11.793-14.662,20.719-28.05,24.225c-17.85,4.462-31.556-7.013-30.919-25.5
			c0-0.957,0-1.913,0.319-4.144c-1.275,2.55-2.231,4.144-3.188,5.419c-7.331,12.112-16.894,21.356-31.237,24.543
			c-19.125,4.144-33.469-9.881-28.688-28.688c3.825-14.662,9.562-29.006,14.663-43.35c10.519-29.644,21.037-59.288,31.237-88.932
			c1.275-3.506,2.869-4.462,6.694-4.462c130.688,0,261.375,0,392.062,0c3.188,0,4.781,0.957,5.738,4.144
			c14.662,42.075,29.644,84.15,44.625,126.543c1.274,4.144,2.23,8.288,2.23,12.75c0.319,15.938-11.475,25.819-27.094,22.95
			c-14.344-2.55-24.225-11.475-31.875-23.587c-1.274-1.913-2.23-3.825-3.506-6.375c-0.638,4.462-0.638,8.606-1.594,12.431
			c-3.506,13.069-15.3,20.4-28.688,17.212c-13.706-3.188-22.95-11.794-29.325-23.906c-0.956-1.594-1.594-3.506-2.55-5.737
			c-0.638,3.188-0.956,6.056-1.594,8.606c-4.144,17.531-21.037,26.138-37.612,19.125
			C370.068,316.95,363.057,307.069,358.912,294.319z"/>
		<path fill="#FFFFFF" d="M37.612,622.95c0-18.807,0-37.612,0-56.419c172.444,0,344.888,0,517.65,0c0,18.807,0,37.294,0,56.419
			C382.818,622.95,210.375,622.95,37.612,622.95z"/>
		<g>
			<path fill="none" d="M109.65,489.713c65.663,0,9.881,0,75.225,0c0-28.369,0-56.101,0-84.469c-65.663,0-9.562,0-75.225,0
				C109.65,433.612,109.65,461.662,109.65,489.713z"/>
			<path fill="#FFFFFF" d="M79.688,360.3c0,58.331,0,116.344,0,174.675c145.031,0,289.106,0,433.818,0c0-58.331,0-116.344,0-174.675
				C368.475,360.3,224.081,360.3,79.688,360.3z M184.875,489.713c-65.344,0-9.562,0-75.225,0c0-28.051,0-56.101,0-84.469
				c65.663,0,9.562,0,75.225,0C184.875,433.612,184.875,461.344,184.875,489.713z M483.544,510.75c-43.031,0-32.513,0-75.544,0
				c0-41.438,0-83.193,0-124.95c42.713,0,32.513,0,75.544,0C483.544,427.237,483.544,468.675,483.544,510.75z"/>
		</g>
	</g>
	
		<text transform="matrix(1 0 0 1 151.5117 265.6797)" font-family="'FranklinGothic-MediumItalic'" font-size="108.1755" letter-spacing="25">Café</text>
</g>
<g>
	<g>
		<path fill="#FFFFFF" d="M329.906,404.925c-5.1,0-9.881-2.231-13.068-6.056c-3.825-4.782-9.562-7.332-15.619-7.332
			c-6.056,0-11.794,2.55-15.619,7.332c-3.188,3.824-7.969,6.056-13.069,6.056c-4.144,0-7.969-1.594-11.156-4.144
			c-3.506-2.869-5.419-7.013-6.056-11.475c0-1.594,0-3.188,0.319-4.781c-1.913,0.638-4.144,1.275-6.057,1.275
			c-3.825,0-7.969-1.275-10.837-3.825c-3.506-2.869-5.737-7.013-6.056-11.475c0-1.594,0-3.188,0.319-4.781
			c-1.913,0.638-4.144,1.275-6.056,1.275c-4.144,0-7.969-1.275-10.838-4.144c-3.506-2.869-5.737-7.013-6.056-11.475
			s0.957-8.925,3.825-12.431c21.994-26.138,53.869-41.119,87.656-41.119c33.788,0,65.344,14.981,87.338,40.8
			c6.057,7.331,5.1,17.85-2.231,23.906c-3.188,2.55-7.013,3.825-10.837,3.825c-2.231,0-4.145-0.319-6.057-1.275
			c0.318,1.594,0.318,3.188,0.318,4.781c-0.318,4.463-2.55,8.606-6.056,11.475c-2.869,2.55-7.013,3.825-10.838,3.825
			c-2.231,0-4.144-0.319-6.056-1.275c0.318,1.594,0.318,3.188,0.318,4.781c-0.318,4.462-2.55,8.606-6.057,11.475
			C337.875,403.331,334.05,404.925,329.906,404.925z"/>
	</g>
	<path fill="#FFFFFF" d="M301.856,570.356c-51.319,0-92.756-41.757-92.756-92.757v-89.25h185.832v23.587
		c23.269,0.638,42.074,19.763,42.074,43.35c0,23.906-19.443,43.351-43.35,43.351h-1.275
		C382.818,539.756,345.525,570.356,301.856,570.356z"/>
	<path d="M393.338,427.557h-14.663v-23.588H225.038v73.312c0,42.394,34.425,76.818,76.819,76.818
		c40.8,0,74.269-31.875,76.818-72.037h14.981c14.981,0,27.412-12.112,27.412-27.412C420.75,439.987,408.638,427.557,393.338,427.557
		z M393.338,470.269h-14.025v-30.281h14.025c8.287,0,14.98,6.694,14.98,14.981C408.638,463.256,401.943,470.269,393.338,470.269z"/>
	<g>
		<path fill="#FFFFFF" d="M301.537,471.544c-1.274,0-2.55-0.319-3.506-1.594c-0.956-0.956-1.594-2.231-1.594-3.507V429.15
			c0-1.275,0.319-2.551,1.594-3.507c0.956-0.956,2.231-1.594,3.506-1.594c1.275,0,2.551,0.319,3.507,1.594
			c0.956,0.956,1.594,2.231,1.594,3.507v37.293c0,1.275-0.319,2.551-1.594,3.507C303.769,471.225,302.812,471.544,301.537,471.544z"
			/>
		<path fill="#FFFFFF" d="M301.537,516.487c-5.737,0-11.156-1.274-16.256-3.506s-9.562-5.101-13.388-8.925
			c-3.825-3.825-6.693-8.288-8.925-13.388c-2.231-5.101-3.506-10.519-3.506-16.257c0-6.693,1.594-13.068,4.462-18.806
			c2.869-5.737,7.013-10.838,12.432-14.981c0.956-0.638,1.912-0.956,2.869-0.956c0.319,0,0.637,0,0.637,0
			c1.275,0.318,2.231,0.638,3.188,1.912c0.957,1.275,1.275,2.231,0.957,3.507c-0.319,1.274-0.638,2.55-1.913,3.188
			c-4.144,3.188-7.331,7.012-9.562,11.475s-3.506,9.244-3.506,14.344c0,4.463,0.957,8.606,2.55,12.75
			c1.594,3.825,4.144,7.331,7.012,10.2c2.869,2.868,6.375,5.1,10.2,7.013c3.825,1.594,8.288,2.55,12.431,2.55
			s8.606-0.956,12.75-2.55c3.825-1.594,7.331-4.145,10.2-7.013c2.868-2.869,5.1-6.375,7.013-10.2c1.594-4.144,2.55-8.287,2.55-12.75
			c0-5.1-1.275-9.881-3.507-14.344c-2.23-4.463-5.418-8.287-9.562-11.475c-0.956-0.957-1.594-1.913-1.912-3.188
			c-0.318-1.275,0-2.551,0.956-3.507c0.956-1.274,1.913-1.594,3.188-1.912c0.319,0,0.638,0,0.638,0c0.956,0,1.912,0.318,2.869,0.956
			c5.418,4.144,9.562,8.925,12.431,14.981c2.869,5.737,4.463,12.112,4.463,18.806c0,5.738-1.275,11.156-3.507,16.257
			c-2.23,5.1-5.418,9.881-8.925,13.388c-3.825,3.824-8.287,6.693-13.388,8.925C312.693,515.213,307.275,516.487,301.537,516.487z"/>
	</g>
	<g>
		<path d="M381.225,344.681c-20.081-23.587-49.087-37.293-80.006-37.293s-59.925,13.706-80.006,37.293
			c-2.55,3.188-2.231,7.969,0.957,10.519c1.275,1.275,3.188,1.594,4.781,1.594c2.231,0,4.144-0.957,5.737-2.55
			c17.212-20.4,42.075-32.194,68.531-32.194s51.318,11.794,68.531,31.875c1.594,1.913,3.506,2.55,5.737,2.55
			c1.594,0,3.507-0.638,4.781-1.594C383.456,352.65,384.094,347.869,381.225,344.681L381.225,344.681z M301.537,337.35
			c-21.993,0-42.712,9.562-57.056,26.775c-2.55,3.188-2.231,7.969,0.956,10.519c1.275,1.275,3.188,1.594,4.781,1.594
			c2.231,0,4.144-0.956,5.737-2.55c11.475-13.706,28.05-21.356,45.581-21.356c17.531,0,34.106,7.65,45.582,21.356
			c1.594,1.594,3.506,2.55,5.737,2.55c1.594,0,3.506-0.637,4.781-1.594c3.188-2.55,3.506-7.331,0.956-10.519
			C344.25,346.913,323.531,337.35,301.537,337.35L301.537,337.35z M301.537,366.994c-13.387,0-25.818,5.738-34.106,15.938
			c-2.55,3.188-2.231,7.969,0.957,10.519c1.275,1.275,3.188,1.594,4.781,1.594c2.231,0,4.144-0.957,5.737-2.55
			c5.737-6.694,14.025-10.837,22.95-10.837c8.925,0,17.212,3.825,22.95,10.837c1.594,1.594,3.506,2.55,5.737,2.55
			c1.594,0,3.506-0.638,4.781-1.594c3.188-2.55,3.506-7.332,0.956-10.519C327.037,372.731,314.606,366.994,301.537,366.994
			L301.537,366.994z"/>
	</g>
</g>
</svg>
